# xmcd CD database file
#
# Track frame offsets:
#	150
#	49590
#	70552
#	100612
#	122759
#	157617
#	183896
#	218243
#	246759
#	284687
#	328197
#
# Disc length: 4720 seconds
#
# Revision: 0
# Processed by: cddbd v1.5.1PL0 Copyright (c) Steve Scherf et al.
# Submitted via: CDex 1.51
#
DISCID=92126e0b
DTITLE=Sadao Watanabe - How's Everything (Remastered Vinyl)
DYEAR=2005
DGENRE=Jazz
TTITLE0=Up Country
TTITLE1=Mzuri
TTITLE2=Tsumagoi
TTITLE3=All About Love
TTITLE4=Nice Shot
TTITLE5=Seeing You
TTITLE6=No Problem
TTITLE7=Boa Noite
TTITLE8=Sun Dance
TTITLE9=M&M Studio
TTITLE10=My Dear Life
EXTD=YEAR: 2005
EXTT0=
EXTT1=
EXTT2=
EXTT3=
EXTT4=
EXTT5=
EXTT6=
EXTT7=
EXTT8=
EXTT9=
EXTT10=
PLAYORDER=
